<mxfile host="app.diagrams.net" modified="2023-09-06T10:58:19.767Z" agent="Mozilla/5.0 (Macintosh; Intel Mac OS X 10_15_7) AppleWebKit/537.36 (KHTML, like Gecko) Chrome/116.0.0.0 Safari/537.36" etag="bw1AVxRXpPxpP-jCVVHR" version="21.7.2" type="device">
  <diagram name="Page-1" id="-Uvpl9UZkFMDvFzWkYHY">
    <mxGraphModel dx="1434" dy="822" grid="1" gridSize="10" guides="1" tooltips="1" connect="1" arrows="1" fold="1" page="1" pageScale="1" pageWidth="827" pageHeight="1169" math="0" shadow="0">
      <root>
        <mxCell id="0" />
        <mxCell id="1" parent="0" />
        <mxCell id="ViyQ2evFCCiP_4lB1055-1" value="" style="whiteSpace=wrap;html=1;shape=mxgraph.basic.document;shadow=0;" vertex="1" parent="1">
          <mxGeometry x="90" y="170" width="100" height="100" as="geometry" />
        </mxCell>
        <mxCell id="ViyQ2evFCCiP_4lB1055-2" value="ArXiv Papers" style="text;strokeColor=none;align=center;fillColor=none;html=1;verticalAlign=middle;whiteSpace=wrap;rounded=0;" vertex="1" parent="1">
          <mxGeometry x="95" y="280" width="90" height="30" as="geometry" />
        </mxCell>
      </root>
    </mxGraphModel>
  </diagram>
</mxfile>
